<?xml version="1.0" standalone="no"?>
<!DOCTYPE svg PUBLIC "-//W3C//DTD SVG 20010904//EN"
 "http://www.w3.org/TR/2001/REC-SVG-20010904/DTD/svg10.dtd">
<svg version="1.0" xmlns="http://www.w3.org/2000/svg"
 width="360.000000pt" height="360.000000pt" viewBox="0 0 360.000000 360.000000"
 preserveAspectRatio="xMidYMid meet">

<g transform="translate(0.000000,360.000000) scale(0.100000,-0.100000)"
fill="#000000" stroke="none">
<path d="M1621 3140 c-306 -43 -578 -184 -796 -411 -181 -188 -294 -403 -351
-670 -26 -118 -26 -400 0 -518 59 -274 180 -500 371 -692 188 -191 421 -316
696 -375 118 -26 400 -26 518 0 284 61 511 186 708 389 188 194 300 406 359
678 26 118 26 400 0 518 -115 534 -506 937 -1025 1057 -119 28 -365 40 -480
24z m419 -318 c273 -72 494 -227 639 -452 64 -99 109 -202 143 -330 28 -101
30 -349 5 -458 -48 -207 -140 -373 -288 -521 -148 -148 -314 -240 -521 -288
-109 -25 -357 -23 -458 5 -278 75 -494 228 -639 452 -252 390 -220 892 81
1250 151 180 377 309 618 354 113 21 316 15 420 -12z"/>
<path d="M1282 2383 c-61 -30 -91 -96 -77 -170 6 -32 36 -67 193 -225 l186
-188 -186 -188 c-199 -201 -209 -215 -194 -297 9 -46 65 -102 111 -111 82 -15
96 -5 297 194 l188 186 188 -186 c201 -199 215 -209 297 -194 46 9 102 65 111
111 15 82 5 96 -194 297 l-186 188 186 188 c199 201 209 215 194 297 -9 46
-65 102 -111 111 -82 15 -96 6 -297 -194 l-188 -186 -183 181 c-100 100 -195
186 -210 192 -40 15 -87 13 -125 -6z"/>
</g>
</svg>
