<?xml version="1.0" standalone="no"?>
<!DOCTYPE svg PUBLIC "-//W3C//DTD SVG 20010904//EN"
 "http://www.w3.org/TR/2001/REC-SVG-20010904/DTD/svg10.dtd">
<svg version="1.0" xmlns="http://www.w3.org/2000/svg"
 width="196.000000pt" height="196.000000pt" viewBox="0 0 196.000000 196.000000"
 preserveAspectRatio="xMidYMid meet">
<metadata>
Created by potrace 1.14, written by Peter Selinger 2001-2017
</metadata>
<g transform="translate(0.000000,196.000000) scale(0.100000,-0.100000)"
fill="#000000" stroke="none">
<path d="M794 1808 c-3 -5 -3 -11 -1 -15 13 -22 -14 -46 -73 -67 -79 -28 -164
-67 -168 -78 -2 -4 -9 -8 -15 -8 -7 0 -25 -11 -42 -25 -16 -13 -35 -28 -40
-32 -24 -19 -85 -73 -82 -73 2 0 -16 -21 -40 -47 -43 -47 -158 -257 -148 -272
5 -9 -28 -27 -68 -35 -26 -6 -37 -29 -19 -40 10 -6 14 -72 16 -244 l1 -113 39
-11 c21 -7 41 -19 44 -27 3 -9 12 -32 20 -51 8 -19 14 -38 14 -42 -1 -5 3 -8
9 -8 5 0 7 -5 4 -10 -3 -6 -1 -10 4 -10 6 0 11 -7 11 -15 0 -8 5 -15 11 -15 5
0 8 -4 5 -8 -3 -5 3 -18 14 -29 10 -12 16 -23 14 -26 -3 -3 33 -43 79 -90 57
-57 111 -99 163 -128 44 -24 81 -44 84 -44 3 0 10 -3 15 -6 87 -53 381 -69
515 -30 112 34 237 104 312 175 20 19 39 32 42 29 3 -4 6 0 6 7 0 7 7 20 15
29 55 57 122 170 152 258 8 22 23 37 47 47 35 15 36 16 37 73 1 32 3 67 4 78
2 11 6 60 9 109 3 48 8 96 11 107 7 20 -18 38 -59 41 -17 2 -27 10 -31 28 -38
151 -169 333 -310 430 -53 37 -176 94 -234 110 -40 11 -48 22 -42 68 2 15 9
14 -172 16 -82 1 -151 -2 -153 -6z"/>
</g>
</svg>
